<?xml version="1.0" encoding="utf-8"?>
<!-- Generator: Adobe Illustrator 15.1.0, SVG Export Plug-In . SVG Version: 6.00 Build 0)  -->
<!DOCTYPE svg PUBLIC "-//W3C//DTD SVG 1.1//EN" "http://www.w3.org/Graphics/SVG/1.1/DTD/svg11.dtd">
<svg version="1.1" id="Layer_1" xmlns="http://www.w3.org/2000/svg" xmlns:xlink="http://www.w3.org/1999/xlink" x="0px" y="0px"
	 width="396.85px" height="311.81px" viewBox="0 0 396.85 311.81" enable-background="new 0 0 396.85 311.81" xml:space="preserve">
<path fill="none" stroke="#000000" d="M155.59,140.018c-0.23,6.512,0.193,13.396-0.045,17.918
	c-0.408,7.729,0.184,10.234,0.904,17.882c0.69,7.323-0.542,3.071,0.902,11.199c1.221,6.868,11.197,5.599,19.326,5.599
	c2.535-0.281,13.87-0.771,16.438-0.902c12.186-0.624,24.62,0.903,30.526,0.903c6.638,0,6.684-4.708,6.684-15.173
	c0-6.885,0.18-3.613,0-9.754c-0.121-4.144-0.903-23.662-0.903-29.805c0-8.91-0.722-16.076-1.626-22.578
	c-1.042-7.492-7.125-37.801,5.238-37.57c5.766,0.106,9.119,1.513,13.907,1.806c0.588,0.036,1.653,0.099,3.06,0.177"/>
<path fill="none" stroke="#000000" d="M155.59,140.018"/>
<path fill="none" stroke="#000000" d="M156.791,128.247"/>
<path fill="none" stroke="#000000" d="M128.767,128.229c-0.482-5.564-1.433-8.503-1.942-13.451
	c-0.246-2.387-0.893-5.137-1.445-7.639c-0.592-2.68-1.6-10.291-1.626-13.049c-0.048-5.214-3.827-16.455,2.581-19.303
	c3.385-1.503,8.295,0.252,12,0.588c3.928,0.355,3.707-1.275,9-0.588c2.773,0.361,8.188-2.033,10.332,0
	c2.352,2.229,1.688,22.638,1.492,25.986c-0.361,6.207-1.987,15.02-1.987,20.211c0,3.152,0.095,3.41-0.171,5.582"/>
<path fill="none" stroke="#000000" d="M128.85,129.423c-0.025-0.411-0.053-0.81-0.083-1.196"/>
<path fill="none" stroke="#000000" d="M129.236,140.233"/>
<path fill="none" stroke="#000000" d="M29.666,78.566c0.399-0.135,7.649-0.301,8-0.334c7-0.666,3.334-1,10,0.334
	c8.175,1.635,12.114,14.971,10.002,21.941c-2.796,9.223-3.824,19.135-3.816,29.249c0.005,6.505-1.065,9.673-1.445,16.979
	c-0.501,9.657,0.111,10.82-0.18,18.604c-0.148,3.948,0.18,5.6,0.055,11.232c-0.076,3.369,1.016,10.092,2.92,12.048
	c8.71,8.947,26.79,2.064,38.782,3.218c9.153,0.881,26.36,1.233,29.601-0.388c7.938-3.962,4.016-22.255,4.742-29.697
	c0.679-6.963,0.98-14.293,0.91-21.521"/>
<path fill="none" stroke="#000000" d="M53.488,183.945c-0.187,3.187-1.008,6.041-0.039,9.268c0.841,2.804,1.771,6.463,3.503,8.941
	c1.171,1.674,3.421,2.318,5.06,3.458c2.82,1.961,5.249,2.785,8.628,2.894c3.554,0.115,6.417-0.05,9.847-0.938
	c2.814-0.728,5.816-1.247,8.719-1.59c1.854-0.219,3.727-0.459,5.557,0.01c1.873,0.479,3.478,1.654,5.439,1.848
	c2.601,0.258,5.238,0.137,7.854,0.133c4.07-0.004,8.717,1.812,12.642-0.033c8.858-4.167,7.573-15.434,7.573-23.447"/>
<path fill="none" stroke="#000000" d="M53.668,194.965c0,4.816,0.551,9.454,1.045,14.236c0.242,2.355,0.533,5.28,2.345,6.896
	c2.408,2.148,6.189,2.679,9.251,3.447c4.752,1.191,9.501,2.879,14.457,2.875c2.695-0.002,4.574,0.191,7.225,0.355
	c3.054,0.188,3.341-0.824,6.322-0.181c1.518,0.327,8.373-0.373,9.934-0.361c3.972,0.028,5.699-0.619,9.574-1.626
	c1.719-0.446,2.59,0.18,4.334-0.18c1.482-0.307,3.311-2.103,4.666-2.881c1.207-0.693,1.741-2.053,2.635-3.078
	c1.647-1.891,2.653-1.428,2.633-4.009c-0.023-2.933,0.157-5.901-0.001-8.829c-0.089-1.651-0.349-3.172-0.36-4.86"/>
<path fill="none" stroke="#000000" d="M55.294,211.182c0.258,4.065-0.748,9.326-0.359,13.4c0.28,2.947-0.144,9.533,1.265,12.282
	c0.867,1.694,1.951,3.271,3.07,4.877c1.943,2.788,5.301,1.447,8.49,1.807c7.297,0.822,17.701-1.445,24.76-1.261
	c5.632,0.146,11.723,0.891,17.358,0.863c6.063-0.03,12.251,1.598,17.125-2.826c2.464-2.236,2.584-3.178,1.991-6.467
	c-0.609-3.391-0.793-6.873-0.916-10.314c-0.139-3.871,0.01-7.771,0.01-11.647c0-0.479,0-0.957,0-1.436"/>
<path fill="none" stroke="#000000" d="M55.115,230.361c-0.16,3.781,0.293,6.83,0.17,10.611c-0.078,2.359,0.142,4.734-0.023,7.093
	c-0.104,1.472-0.374,6.517-0.508,7.765c-0.281,2.616,0.222,3.687,1.834,5.689c2.817,3.499,9.004,3.095,12.954,2.797
	c5.514-0.417,10.499-0.572,15.738-1.619c3.867-0.773,6.72-1.256,10.657-1.266c4.633-0.01,5.039,0.834,9.573,1.266
	c4.875,0.462,11.401,2.141,18.786,0.18c3.953-1.05,7.931-4.226,7.945-8.205c0.006-1.727,0.201-3.578,0.017-5.291
	c-0.198-1.84-0.985-3.045-1.69-4.716c-1.512-3.581-0.711-7.515-1.758-11.228"/>
<path fill="none" stroke="#000000" d="M156.81,182.497c0.067,2.153-0.155,9.224-0.361,11.38c-0.231,2.416,0.267,11.76,2.167,13.186
	c2.891,2.168,0.226,0.17,4.155,1.626c3.928,1.455,8.497-0.723,12.497-0.723c5.922,0,11.738-0.542,17.666-0.542
	c5.701,0,23.209,0.375,28.902,0.361c5.075-0.013,5.353,1.133,7.226-5.058c0.425-1.406,0.343-3.452,0.723-4.877
	c0.356-1.339,0-2.528,0-4.516c0-2.269,0.361-2.71-0.181-4.696"/>
<path fill="none" stroke="#000000" d="M106.053,191.89"/>
<path fill="none" stroke="#000000" d="M156.448,200.561c0.359,3.039-0.97,8.541,0.035,11.555c1.153,3.461,4.213,6.123,7.507,7.411
	c6.862,2.683,15.434,2.021,22.659,1.259c5.325-0.561,10.658-0.939,16.04-1.258c3.256-0.193,6.661,0.346,9.898,0.5
	c2.671,0.127,5.281-0.188,7.931-0.33c4.406-0.234,9.001-0.076,10.173-5.229c0.793-3.484,0.762-7.042-0.365-10.296
	c-0.299-0.862-0.837-4.14-0.839-5.032"/>
<path fill="none" stroke="#000000" d="M156.087,208.869c-0.669,2.594,0.503,5.709,0.542,8.489c0.052,3.735-0.84,7.155-0.502,10.657
	c0.335,3.465,1.747,6.596,3.895,9.393c3.838,5.002,9.941,5.488,15.76,6.183c7.943,0.948,15.57,0.142,23.516,0.14
	c7.639-0.002,15.127,0.555,22.133-2.664c3.026-1.391,6.944-2.395,8.855-5.328c1.253-1.925,1.433-1.883,1.666-4.109
	c0.215-2.048-0.104-4.823-0.361-6.684c-0.263-1.91-0.073-5.432-0.678-7.406c-0.189-0.619-0.382-4.876,0.117-4.997"/>
<path fill="none" stroke="#000000" d="M156.629,229.822c-0.998,4.529-0.723,9.212-0.496,14.13c0.215,4.669,0.67,13.603,4.289,16.577
	c5.059,4.154,7.801,3.785,12.93,5.018c3.607,0.866,7.067,1.374,10.761,1.485c2.612,0.079,5.265,0.542,7.884,0.37
	c2.306-0.152,4.596-0.628,6.896-0.741c6.846-0.337,13.55,0.771,20.279-0.759c5.838-1.326,8.526-4.482,10.437-10.109
	c1.349-3.974,1.826-8.914,1.62-13.098c-0.087-1.752,0.017-5.682,0.542-9.622"/>
<path fill="none" stroke="#000000" d="M30.876,92.566c0.586,4.228-0.304,15.5-0.792,19.7c-0.623,5.351,0.322,10.173,0.01,15.696
	c-0.615,10.895-3.09,21.773-4.204,32.724c-2.211,21.729-0.006,43.472,1.144,65.114c0.588,11.053,0.225,22.519-0.39,33.385
	c-0.666,11.816,1.235,22.112,16.407,22.715c13.615,0.541,25.277-6.202,38.519-7.347c13.571-1.171,25.478,2.115,38.517,2.654
	c13.568,0.561,26.846-0.788,40.435-1.336c13.731-0.553,28.128,1.722,41.559,3.349c12.288,1.489,26.63,3.234,38.9,0.353
	c14.905-3.504,18.407-13.046,19.829-25.055c2.733-23.093-2.899-46.313-4.186-69.122c-0.67-11.818-2.35-23.562-3.061-35.379
	c-0.656-10.93-0.542-22.279-1.143-33.074c-0.329-5.85-1.587-11.366-2.299-17.03c-0.133-1.042-0.009-4.998-0.198-6.345"/>
<path fill="none" stroke="#000000" d="M160.334,70.566"/>
<path fill="none" stroke="#000000" d="M123.08,69.5"/>
<path fill="none" stroke="#000000" d="M129,140.566c2.421-2.881,8.691-1.666,12.334-1.666c4.309,0,10.011-1.022,13.666,1.332"/>
<path fill="none" stroke="#000000" d="M128.666,129.232c3.309,2.388,9.623,2.133,13.668,2.333c3.954,0.194,12.53-1.351,14.666-4.999
	"/>
<path fill="none" stroke="#000000" d="M52.334,82.232c2.738-0.084,7.734-2.66,8.756-5.094c1.539-3.664-1.766-9.436-3.416-12.564
	C51.752,53.341,43.533,42.76,41.668,29.908c-0.406-2.794-1.773-9.512,1.74-10.934c3.139-1.272,4.496,2.24,5.518,4.665
	c2.1,4.985,3.256,10.532,5.334,15.601c2.723,6.643,5.973,13.594,7.992,20.326c1.051,3.506,2.396,19.467,8.689,17.949
	c2.258-5.725-0.395-11.42-2.533-17.033c-2.381-6.242-3.883-12.467-5.482-18.826c-1.084-4.311-4.575-16.949-0.86-21.023
	c4.321-4.739,7.095,7.297,7.583,9.617c1.174,5.581,1.605,11.609,3.037,17.315c1.333,5.315,1.98,10.69,1.98,16.335
	c0,3.355-1.768,13.248,3.742,12.924c5.169-0.303,3.924-11.172,3.591-14.592c-1.128-11.587-5.367-29.025,2.651-38.891
	c4.808,3.531,4.057,10.191,3.025,15.232c-1.049,5.126-1.486,10.387-1.75,15.918C85.669,59.873,86.014,65.407,86,70.9
	c-0.006,2.309-0.47,6.443,2.332,6.682c2.322,0.198,4.811-3.863,5.26-5.682c0.806-3.27,0.074-7.729,0.074-11.074
	c0-5.428,0.519-10.041,1.686-15.26c1.646-7.357,0.996-17.158,6.057-23.309c6.594,2.721,4.922,9.09,2.842,14.301
	c-2.162,5.418-3.719,10.64-4.25,16.434c-0.541,5.896-2.178,10.299-3.676,15.908c-0.514,1.92-1.672,6.751,0.02,8.266
	c2.057,1.842,4.48-0.624,5.655-2.268c4.328-6.059,5.734-14.199,7.066-21.331c1.054-5.644,3.096-11.119,4.267-16.753
	c0.947-4.558,2.16-10.725,7.602-11.557c2.637,6.611,0.006,10.549-2.682,16.568c-2.162,4.842-4.084,10.031-6.169,15.082
	c-2.091,5.066-4.981,9.889-5.417,15.324c-0.664,8.309,6.515,4.837,8.751,0.018c4.876-10.506,8.493-21.383,13.907-31.592
	c2.178-4.107,6.174-17.978,12.084-14.191c12.146,7.782-9.892,27.109-14.668,33.1c-2.793,3.503-5.941,7.887-7.74,12
	c-1.221,2.792-1.976,10.58,3.047,10.314c0.398,0.33-0.16,0.174-0.381,0.352"/>
<path fill="none" stroke="#000000" d="M158.666,79.566c-0.15,1.002,2.035,2.518,3.316,2.683c2.805,0.359,4.42-1.517,5.441-4.032
	c2.104-5.18-2.079-9.474-4.082-14.051c-3.277-7.486-5.58-15.552-6.925-23.599c-0.825-4.942-3.3-12.379-0.017-16.636
	c6.732,1.861,7.392,10.054,8.258,15.617c0.836,5.377,1.18,11.663,2.75,16.944c1.756,5.901,2.599,10.341,2.592,16.739
	c-0.003,2.602-0.403,5.641,2.316,7.074c3.315,1.75,3.776-1.482,3.341-4.057c-0.648-3.826-2.794-7.564-3.667-11.434
	c-0.968-4.291-1.324-8.473-1.324-12.899c0-9.403-0.105-17.178,3.733-25.651c3.465,2.622,2.266,9.332,1.601,12.967
	c-0.801,4.377-0.993,9.272-0.342,13.668c0.712,4.792,2.25,9.389,2.75,14.258c0.375,3.66-1.388,9.777,0.648,13.016
	c5.326-0.583,3.277-14.428,3.277-18.273c0-7.889-0.191-15.846,0.258-23.686c0.143-2.48-0.338-9.382,1.318-11.405
	c2.375-2.904,3.818,0.757,4.44,3.073c1.339,4.986,0.7,11.305,0.649,16.701c-0.053,5.674-1.475,10.877-1.74,16.574
	c-0.113,2.406,0.109,5.559-0.261,8.074c-0.292,1.98-2.624,5.121-2.024,7.018c1.14,3.605,4.365,3.408,6.434,1.335
	c2.785-2.789,3.119-6.219,3.666-10.018c1.241-8.63,1.437-18.05,0.242-26.685c-0.486-3.515-2.941-17.201,3.018-16.99
	c6.948,0.244,6.014,12.25,4.666,16.29c-2.102,6.304-2.936,11.528-3.658,18.05c-0.579,5.215-5.574,11.633-2.424,16.759
	c1.518,2.47,6.275,5.403,8.748,3.249C208.523,77.748,207,69.733,207,66.5c0-10.953-0.306-24.127,4.408-34.268
	c0.897-1.932,3.381-5.593,5.85-3.932c1.933,1.301,1.066,7.047,0.649,8.875c-1.763,7.738-6.81,13.293-7.565,21.316
	c-0.406,4.306-3.191,13.777,1.252,17.09c5.765,4.299,9.155-9.562,9.812-13.091c1.233-6.624,1.497-13.417,2.845-20.015
	c0.975-4.773,2.12-9.836,6.234-12.91c4.018-3.002,11.305-2.648,10.515,3.666c-0.667,5.334-2.958,5.182-6,9
	c-6.008,7.545-11.095,17.32-14,26.668c-0.818,2.631-2.615,6.156-1.091,8.74c1.298,2.201,4.331,2.836,6.091,4.26"/>
<path fill="none" stroke="#000000" d="M55.334,110.233c3.123-0.241,8.58,3.955,9.849-1.233c-1.116,4.646-6.027,8.148-10.183,7.233"
	/>
<path fill="none" stroke="#000000" d="M54.334,128.233c3.252,1.2,6.166,3.894,10,3.665c3.792-0.225,7.014-2.768,8.35-6.23
	c0.312,4.327-2.938,7.248-6.359,9.482c-2.57,1.68-11.18,2.962-12.657,0.416"/>
<path fill="none" stroke="#000000" d="M52.334,153.566c3.975-0.002,7.692,0.448,11.666,0.65c4.494,0.227,4.846-1.431,8.625-2.85
	c-2.908,2.623-3.93,5.115-8.032,6.125c-1.997,0.492-4.392,0.272-6.333,0.667c-1.473,0.299-4.869,0.901-4.593,1.074"/>
<path fill="none" stroke="#000000" d="M126.667,111.233c-5.927,0.854-8.988,0.657-14.541-2.284
	c4.052,3.221,9.614,6.256,14.208,6.284"/>
<path fill="none" stroke="#000000" d="M158.334,109.233c3.53,0,8.859,0.884,11.635-1.541c-1.015,2.315-1.801,4.078-4.22,5.29
	c-2.203,1.104-6.394,0.326-7.749,1.251"/>
<path fill="none" stroke="#000000" d="M155.334,155.9c2.348-0.019,4.889,0.832,7.258,0.258c1.799-0.436,3.656-1.858,5.273-2.625
	c-2.204,1.325-2.961,3.738-5.198,5.033c-1.747,1.011-6.579,1.723-6.667,1.667"/>
<path fill="none" stroke="#000000" d="M226.334,108.233c-2.177,0.627-4.31,1.898-6.667,2c-2.919,0.126-4.979-2.103-7.55-3.033
	c2.6,1.624,3.948,4.397,6.476,6.107c2.519,1.704,6.823,1.97,9.204,1.999"/>
<path fill="none" stroke="#000000" d="M229,131.9c-4.713,3.697-14.225-1.254-18.549-3.691c4.632,1.255,4.978,4.547,7.791,7.449
	c2.863,2.952,6.904,2.91,10.758,2.908"/>
<path fill="none" stroke="#000000" d="M229.667,155.9c-2.962-0.312-5.729,0.779-8.594-0.074c-2.529-0.754-4.785-2.705-7.039-3.885
	c3.284,5.055,9.049,9.402,15.341,8.619c0.235,0.039-0.1,0.249-0.041,0.673"/>
<line fill="none" stroke="#EE306B" stroke-miterlimit="10" x1="227" y1="112.233" x2="251" y2="112.233"/>
<line fill="none" stroke="#EE306B" stroke-miterlimit="10" x1="254" y1="112.233" x2="272.334" y2="112.233"/>
<line fill="none" stroke="#EE306B" stroke-miterlimit="10" x1="242.667" y1="32.233" x2="272.667" y2="32.233"/>
<line fill="none" stroke="#EE306B" stroke-miterlimit="10" x1="153.667" y1="134.233" x2="212.334" y2="134.233"/>
<line fill="none" stroke="#EE306B" stroke-miterlimit="10" x1="232" y1="133.566" x2="251" y2="133.566"/>
<line fill="none" stroke="#EE306B" stroke-miterlimit="10" x1="254.334" y1="133.566" x2="272.667" y2="133.566"/>
<line fill="none" stroke="#EE306B" stroke-miterlimit="10" x1="236" y1="87.233" x2="272" y2="87.233"/>
<g>
	<text transform="matrix(1 0 0 1 273.667 35.2329)"><tspan x="0" y="0" fill="#EE306B" font-family="'MyriadPro-Regular'" font-size="14">Polüübi </tspan><tspan x="0" y="16.8" fill="#EE306B" font-family="'MyriadPro-Regular'" font-size="14">käsihaarmed</tspan></text>
</g>
<g>
	<text transform="matrix(1 0 0 1 274 90.2334)" fill="#EE306B" font-family="'MyriadPro-Regular'" font-size="14">Koralliidi sein</text>
</g>
<line fill="none" stroke="#EE306B" stroke-miterlimit="10" x1="232.689" y1="226.45" x2="260.083" y2="226.45"/>
<line fill="none" stroke="#000000" stroke-width="0.5" x1="195.808" y1="226.45" x2="230.91" y2="226.45"/>
<line fill="none" stroke="#EE306B" stroke-miterlimit="10" x1="254.51" y1="147.943" x2="272.892" y2="147.943"/>
<line fill="none" stroke="#EE306B" stroke-miterlimit="10" x1="230.436" y1="147.943" x2="252.375" y2="147.943"/>
<line fill="none" stroke="#EE306B" stroke-miterlimit="10" x1="193.673" y1="147.943" x2="228.657" y2="147.943"/>
<line fill="none" stroke="#EE306B" stroke-miterlimit="10" x1="261.626" y1="226.45" x2="280.626" y2="226.45"/>
<g>
	<text transform="matrix(1 0 0 1 281.958 229.5527)" fill="#EE306B" font-family="'MyriadPro-Regular'" font-size="14">Koralliit</text>
</g>
<g>
	<text transform="matrix(1 0 0 1 273.668 137.8999)" fill="#EE306B" font-family="'MyriadPro-Regular'" font-size="14">Poor</text>
</g>
<g>
	<text transform="matrix(1 0 0 1 274 116.2334)" fill="#EE306B" font-family="'MyriadPro-Regular'" font-size="14">Septi oga</text>
</g>
<path fill="none" stroke="#000000" d="M128.667,153.233c-5.927,0.854-8.988,0.657-14.541-2.284
	c4.052,3.221,9.614,6.256,14.208,6.284"/>
<g>
	<text transform="matrix(1 0 0 1 273.6348 152.6016)" fill="#EE306B" font-family="'MyriadPro-Regular'" font-size="14">Karikas</text>
</g>
</svg>
